<mxfile host="app.diagrams.net" modified="2021-07-05T08:00:46.656Z" agent="5.0 (Windows NT 10.0; Win64; x64) AppleWebKit/537.36 (KHTML, like Gecko) Chrome/79.0.3945.130 Safari/537.36" etag="o6qbwPnKgYARWn7JKtfR" version="14.8.4" type="github">
  <diagram id="9WNWNfD7PutOuA2s0iK-" name="Page-1">
    <mxGraphModel dx="868" dy="1582" grid="1" gridSize="10" guides="1" tooltips="1" connect="1" arrows="1" fold="1" page="1" pageScale="1" pageWidth="850" pageHeight="1100" math="0" shadow="0">
      <root>
        <mxCell id="0" />
        <mxCell id="1" parent="0" />
        <mxCell id="SrD1Vm8CixduBjxspiqY-2" value="" style="outlineConnect=0;dashed=0;verticalLabelPosition=bottom;verticalAlign=top;align=center;html=1;shape=mxgraph.aws3.ec2;fillColor=#F58534;gradientColor=none;" vertex="1" parent="1">
          <mxGeometry x="290" y="-420" width="210" height="180" as="geometry" />
        </mxCell>
        <mxCell id="SrD1Vm8CixduBjxspiqY-3" value="EC2 Machine" style="text;html=1;align=center;verticalAlign=middle;resizable=0;points=[];autosize=1;strokeColor=none;" vertex="1" parent="1">
          <mxGeometry x="330" y="-450" width="90" height="20" as="geometry" />
        </mxCell>
        <mxCell id="SrD1Vm8CixduBjxspiqY-6" value="" style="aspect=fixed;html=1;points=[];align=center;image;fontSize=12;image=img/lib/mscae/Docker.svg;" vertex="1" parent="1">
          <mxGeometry x="340" y="-367.34" width="91.08" height="74.68" as="geometry" />
        </mxCell>
        <mxCell id="SrD1Vm8CixduBjxspiqY-8" value="Jenkins server installed on Docker container" style="text;html=1;align=center;verticalAlign=middle;resizable=0;points=[];autosize=1;strokeColor=none;" vertex="1" parent="1">
          <mxGeometry x="540" y="-340" width="250" height="20" as="geometry" />
        </mxCell>
        <mxCell id="SrD1Vm8CixduBjxspiqY-9" value="Container 1" style="text;html=1;align=center;verticalAlign=middle;resizable=0;points=[];autosize=1;strokeColor=none;" vertex="1" parent="1">
          <mxGeometry x="590" y="-360" width="80" height="20" as="geometry" />
        </mxCell>
        <mxCell id="SrD1Vm8CixduBjxspiqY-12" value="" style="endArrow=classic;html=1;entryX=0;entryY=0.5;entryDx=0;entryDy=0;entryPerimeter=0;" edge="1" parent="1" target="SrD1Vm8CixduBjxspiqY-2">
          <mxGeometry width="50" height="50" relative="1" as="geometry">
            <mxPoint x="250" y="-330" as="sourcePoint" />
            <mxPoint x="210" y="-330" as="targetPoint" />
          </mxGeometry>
        </mxCell>
        <mxCell id="SrD1Vm8CixduBjxspiqY-16" value="" style="endArrow=classic;html=1;entryX=1;entryY=0.5;entryDx=0;entryDy=0;entryPerimeter=0;" edge="1" parent="1" target="SrD1Vm8CixduBjxspiqY-2">
          <mxGeometry width="50" height="50" relative="1" as="geometry">
            <mxPoint x="540" y="-330" as="sourcePoint" />
            <mxPoint x="580" y="-270" as="targetPoint" />
          </mxGeometry>
        </mxCell>
        <mxCell id="SrD1Vm8CixduBjxspiqY-17" value="Flask/Gunicorn app" style="text;html=1;align=center;verticalAlign=middle;resizable=0;points=[];autosize=1;strokeColor=none;" vertex="1" parent="1">
          <mxGeometry x="130" y="-340" width="120" height="20" as="geometry" />
        </mxCell>
        <mxCell id="SrD1Vm8CixduBjxspiqY-18" value="" style="shape=image;html=1;verticalAlign=top;verticalLabelPosition=bottom;labelBackgroundColor=#ffffff;imageAspect=0;aspect=fixed;image=https://cdn4.iconfinder.com/data/icons/logos-brands-5/24/jenkins-128.png" vertex="1" parent="1">
          <mxGeometry x="595" y="-440" width="70" height="70" as="geometry" />
        </mxCell>
        <mxCell id="SrD1Vm8CixduBjxspiqY-19" value="" style="shape=image;html=1;verticalAlign=top;verticalLabelPosition=bottom;labelBackgroundColor=#ffffff;imageAspect=0;aspect=fixed;image=https://cdn4.iconfinder.com/data/icons/logos-brands-5/24/flask-128.png" vertex="1" parent="1">
          <mxGeometry x="150" y="-435" width="65" height="65" as="geometry" />
        </mxCell>
      </root>
    </mxGraphModel>
  </diagram>
</mxfile>
